# Blender v2.80 (sub 75) OBJ File: 'startButton.blend'
# www.blender.org
mtllib startButton.mtl
o Cube
v 3.382441 1.000000 -1.000000
v 3.382441 -1.000000 -1.000000
v 3.382441 1.000000 1.000000
v 3.382441 -1.000000 1.000000
v -3.417559 1.000000 -1.000000
v -3.417559 -1.000000 -1.000000
v -3.417559 1.000000 1.000000
v -3.417559 -1.000000 1.000000
vt 0.404917 0.685690
vt 0.404917 0.685690
vt 0.404917 0.685690
vt 0.404917 0.685690
vt 0.960950 0.171299
vt 0.960951 0.696115
vt 0.036733 0.696115
vt 0.036732 0.171299
vt 0.381772 0.686786
vt 0.381772 0.686786
vt 0.381772 0.686786
vt 0.381772 0.686786
vt 0.381772 0.686786
vt 0.381772 0.686786
vt 0.381772 0.686786
vt 0.381772 0.686786
vn 0.0000 1.0000 0.0000
vn 0.0000 0.0000 1.0000
vn -1.0000 0.0000 0.0000
vn 0.0000 -1.0000 0.0000
vn 1.0000 0.0000 0.0000
vn 0.0000 0.0000 -1.0000
usemtl Material
s off
f 1/1/1 5/2/1 7/3/1 3/4/1
f 4/5/2 3/6/2 7/7/2 8/8/2
f 8/9/3 7/10/3 5/11/3 6/12/3
f 6/12/4 2/13/4 4/14/4 8/9/4
f 2/13/5 1/15/5 3/16/5 4/14/5
f 6/12/6 5/11/6 1/15/6 2/13/6
